<?xml version="1.0" standalone="no"?>
<!DOCTYPE svg PUBLIC "-//W3C//DTD SVG 20010904//EN"
 "http://www.w3.org/TR/2001/REC-SVG-20010904/DTD/svg10.dtd">
<svg version="1.0" xmlns="http://www.w3.org/2000/svg"
 width="700.000000pt" height="700.000000pt" viewBox="0 0 700.000000 700.000000"
 preserveAspectRatio="xMidYMid meet">
<metadata>
Created by potrace 1.11, written by Peter Selinger 2001-2013
</metadata>
<g transform="translate(0.000000,700.000000) scale(0.100000,-0.100000)"
fill="#000000" stroke="none">
<path d="M3368 6240 c-253 -40 -453 -159 -602 -357 -136 -181 -231 -443 -252
-690 l-7 -81 -286 -138 c-696 -336 -968 -481 -1206 -639 -291 -194 -442 -369
-476 -549 -28 -151 51 -260 263 -367 163 -82 489 -177 753 -219 72 -11 149
-24 172 -28 l41 -7 -78 -122 c-111 -173 -213 -313 -426 -588 -398 -511 -502
-661 -599 -860 -98 -199 -127 -318 -129 -520 -1 -161 13 -214 69 -263 67 -59
28 -57 1045 -57 l935 0 53 24 c80 36 135 105 226 282 111 215 235 442 319 578
138 227 280 411 317 411 10 0 39 -24 65 -52 134 -149 328 -467 556 -910 106
-206 158 -271 241 -309 l53 -24 935 0 c1017 0 978 -2 1045 57 56 48 70 102 69
258 -1 197 -33 330 -129 525 -96 197 -206 356 -599 860 -213 274 -315 414
-426 588 l-78 122 41 7 c23 4 101 17 172 28 264 42 590 137 753 219 116 59
196 122 231 183 38 65 45 110 32 184 -34 180 -185 355 -476 549 -238 158 -510
303 -1206 639 l-286 138 -7 81 c-4 45 -16 124 -27 175 -99 455 -363 763 -731
852 -95 23 -276 33 -360 20z"/>
</g>
</svg>
